<?xml version="1.0" standalone="no"?>
<!DOCTYPE svg PUBLIC "-//W3C//DTD SVG 20010904//EN"
 "http://www.w3.org/TR/2001/REC-SVG-20010904/DTD/svg10.dtd">
<svg version="1.0" xmlns="http://www.w3.org/2000/svg"
 width="100.000000pt" height="38.000000pt" viewBox="0 0 100.000000 38.000000"
 preserveAspectRatio="xMidYMid meet">
<metadata>
Created by potrace 1.15, written by Peter Selinger 2001-2017
</metadata>
<g transform="translate(0.000000,38.000000) scale(0.100000,-0.100000)"
fill="#000000" stroke="none">
<path d="M24 366 c-3 -8 -4 -27 -2 -43 2 -23 8 -29 33 -31 17 -2 34 -8 40 -13
12 -12 28 -12 20 1 -3 6 6 4 22 -2 25 -12 26 -13 6 -16 -12 -2 -45 4 -74 12
-42 13 -54 13 -61 4 -11 -17 -10 -36 2 -43 5 -3 7 -12 4 -19 -8 -22 22 -37 75
-38 41 -1 47 -4 34 -13 -12 -9 -13 -14 -4 -19 7 -5 20 -1 31 9 17 15 24 15
112 0 51 -9 104 -19 118 -22 30 -7 45 -9 87 -11 21 -1 33 -8 35 -19 2 -13 16
-17 58 -19 75 -4 75 -4 76 -31 3 -40 12 -53 39 -53 28 0 46 27 26 39 -6 4 -9
14 -6 22 4 11 25 15 78 17 39 1 73 6 75 12 2 5 11 10 20 10 13 0 14 2 4 9 -9
5 -1 10 25 13 21 3 54 13 73 21 l35 15 -60 2 c-33 0 -77 7 -98 14 -20 8 -39
10 -42 6 -7 -11 6 -20 28 -20 11 0 18 -3 14 -6 -9 -9 -137 6 -137 16 0 5 17 7
38 5 29 -4 33 -2 20 6 -10 5 -18 17 -18 24 0 8 -4 15 -10 15 -5 0 -10 -4 -10
-10 0 -5 -7 -10 -15 -10 -8 0 -15 4 -15 9 0 5 -7 8 -15 7 -9 0 -39 28 -68 64
-43 53 -59 66 -86 68 -20 2 -37 -2 -42 -9 -7 -12 -4 -100 6 -161 6 -38 -5 -41
-67 -19 -95 33 -122 40 -183 47 -33 4 -76 15 -95 25 l-35 18 60 1 c33 1 80 5
105 9 l45 8 -52 2 c-69 1 -77 6 -119 62 -33 46 -38 49 -80 49 -29 0 -47 -5
-50 -14z"/>
</g>
</svg>
